<mxfile
  host="Electron" 
  agent="Mozilla/5.0 (Macintosh; Intel Mac OS X 10_15_7) AppleWebKit/537.36 (KHTML, like Gecko) draw.io/25.0.2 Chrome/128.0.6613.186 Electron/32.2.5 Safari/537.36" 
  version="25.0.2"
  >
  <diagram
    name="-"
    >
    <mxGraphModel
      grid="1" 
      gridSize="10" 
      guides="1" 
      tooltips="1" 
      connect="1" 
      arrows="1" 
      fold="1" 
      page="1" 
      pageScale="1" 
      pageWidth="1" 
      pageHeight="1" 
      math="0" 
      shadow="0"
      >
      <root>
        <mxCell
          id="page"
          />
        <mxCell
          id="root" 
          parent="page"
          />
        <mxCell
          style="verticalAlign=top;aspect=fixed;align=center;spacingLeft=5;spacingRight=5;spacingBottom=5;strokeColor=none;" 
          id="shape_" 
          parent="root" 
          value=" " 
          vertex="1"
          >
          <mxGeometry
            as="geometry" 
            width="270" 
            height="180" 
            x="0" 
            y="0"
            />
          </mxCell>
        <mxCell
          style="verticalAlign=top;aspect=fixed;points=[[0.25,0,0],[0.5,0,0],[0.75,0,0],[1,0.25,0],[1,0.5,0],[1,0.75,0],[0.75,1,0],[0.5,1,0],[0.25,1,0],[0,0.75,0],[0,0.5,0],[0,0.25,0]];shape=mxgraph.bpmn.task2;whiteSpace=wrap;rectStyle=rounded;size=10;html=1;container=1;expand=0;collapsible=0;taskMarker=abstract;isAdHoc=1;isLoopSub=1;" 
          id="ad_hoc_collapsed_containertitle" 
          parent="shape_" 
          value="Container Title" 
          vertex="1"
          >
          <mxGeometry
            as="geometry" 
            width="210" 
            height="120" 
            x="30" 
            y="30"
            />
          </mxCell>
        <mxCell
          style="fillColor=transparent;strokeColor=transparent;fontColor=transparent;" 
          id="invisible_a" 
          parent="ad_hoc_collapsed_containertitle" 
          value="A" 
          vertex="1"
          >
          <mxGeometry
            as="geometry" 
            width="60" 
            height="60" 
            x="30" 
            y="30"
            />
          </mxCell>
        <mxCell
          style="fillColor=transparent;strokeColor=transparent;fontColor=transparent;" 
          id="invisible_b" 
          parent="ad_hoc_collapsed_containertitle" 
          value="B" 
          vertex="1"
          >
          <mxGeometry
            as="geometry" 
            width="60" 
            height="60" 
            x="120" 
            y="30"
            />
          </mxCell>
        </root>
      </mxGraphModel>
    </diagram>
  </mxfile>